<svg width="156" height="206" xmlns="http://www.w3.org/2000/svg" xmlns:xlink="http://www.w3.org/1999/xlink" xml:space="preserve" overflow="hidden"><g transform="translate(-655 -591)"><g><path d="M724.564 770.714C721.577 763.263 715.549 733.488 710.518 721.182 705.488 708.87 700.756 704.367 694.381 696.86 688.005 689.36 677.994 684.153 672.265 676.147 666.537 668.14 661.656 658.839 660.013 648.827 658.369 638.822 660.859 624.413 662.403 616.104 663.947 607.802 666.139 602.448 669.277 598.993 672.414 595.539 676.748 594.842 681.231 595.391 685.714 595.94 690.744 596.693 696.173 602.293 701.603 607.9 709.373 620.156 713.806 629.014 718.239 637.872 721.825 647.828 722.772 655.433 723.718 663.039 720.232 667.894 719.484 674.648 718.737 681.402 722.473 680.248 721.875 683.351 721.277 686.454 717.094 689.36 715.898 693.257 714.702 697.163 714.404 703.368 714.702 706.773 716.795 718.882 726.457 754.602 728.45 765.915 728.649 766.71 727.553 778.171 724.564 770.714Z" stroke="#075044" stroke-width="3.21663" stroke-linecap="butt" stroke-linejoin="miter" stroke-miterlimit="8" stroke-opacity="1" fill="#1FC2A7" fill-rule="evenodd" fill-opacity="1"/><path d="M725.8 789.484C728.364 786.541 731.895 778.691 735.889 772.074 739.882 765.463 745.431 756.592 749.761 749.805 754.093 743.025 757.956 735.809 761.867 731.373 765.778 726.938 769.605 725.403 773.216 723.186 776.833 720.968 780.277 721.221 783.559 718.067 786.835 714.906 790.662 708.034 792.89 704.24 795.118 700.445 795.411 697.798 796.927 695.278 798.442 692.764 800.586 691.694 801.969 689.138 803.359 686.576 804.574 683.119 805.251 679.923 805.922 676.719 805.545 673.523 806.006 669.939 806.467 666.356 809.623 663.709 808.024 658.421 806.425 653.127 800.796 642.207 796.424 638.194 792.052 634.189 786.499 633.97 781.792 634.357 777.085 634.738 772.252 636.786 768.173 640.504 764.094 644.214 760.526 648.903 757.327 656.626 754.135 664.349 750.349 677.916 749.004 686.836 747.659 695.749 748.373 700.699 749.256 705.521 750.139 710.344 753.926 711.576 754.303 715.758 754.68 719.94 756.405 719.384 751.527 730.606 746.651 741.828 730.214 773.228 725.044 783.085 719.873 792.941 720.883 788.456 720.504 789.738 720.125 791.019 723.236 792.427 725.8 789.484Z" stroke="#0A5731" stroke-width="4.82477" stroke-linecap="round" stroke-linejoin="round" stroke-miterlimit="10" stroke-opacity="1" fill="#9DEFE2" fill-rule="evenodd" fill-opacity="1"/></g></g></svg>