<svg width="404" height="275" xmlns="http://www.w3.org/2000/svg" xmlns:xlink="http://www.w3.org/1999/xlink" xml:space="preserve" overflow="hidden"><g transform="translate(-563 -1485)"><g><path d="M833.959 1576.7 834.543 1567.69 828.888 1552.92 827.649 1528.06 833.153 1514.44 849.751 1498 870.005 1489.02 887.052 1487.22 905.002 1488.91 915.46 1494.24 924.426 1503.55 932.503 1518.25 933.862 1537.93 931.761 1556.27 928.673 1568.28 921.261 1579 912.193 1589.54 905.384 1595.91 893.647 1599.54 878.312 1598.13 864.001 1595.02 853.646 1591.41 843.23 1595.4 834.714 1600.74 815.437 1618.72 796.01 1635.68 784.539 1645.17 836.463 1648.45 842.763 1646.61 848.515 1639.96 853.994 1631.69 862.961 1625.2 870.118 1621.76 879.704 1619.8 889.885 1621.95 901.301 1621.62 918.042 1626.23 927.63 1630.05 932.585 1633.21 936.343 1636.61 944.475 1642.16 951.164 1646.77 955.888 1651.84 960.02 1658.58 961.221 1664.12 963.472 1674.17 963.443 1683.75 961.655 1691.46 955.679 1701.56 950.739 1707.3 936.425 1714.2 919.199 1718.76 901.958 1720.22 890.096 1717.48 877.865 1712.95 869.327 1707.85 856.736 1703.08 848.809 1695.18 844.045 1686.57 840.904 1676.14 840.593 1670.99 841.57 1664.2 839.83 1661.2 782.28 1655.14 787.044 1663.74 787.012 1661.77 782.519 1654.78 781.472 1646.04C783.226 1644.96 784.98 1643.88 786.735 1642.79L790.104 1639.74 793.137 1636.89 794.85 1633.67 795.461 1630.88 795.009 1626.24 793.39 1623.84 801.81 1618.33 811.097 1608.54 822.066 1599.34 827.174 1593.51 833.73 1584.4 833.959 1576.7Z" stroke="#075044" stroke-width="3.21663" stroke-linecap="butt" stroke-linejoin="miter" stroke-miterlimit="8" stroke-opacity="1" fill="#1FC2A7" fill-rule="evenodd" fill-opacity="1"/><path d="M768.04 1627.46 768.04 1627.46 764.974 1611.98 763.877 1604.16 764.657 1599.31 766.308 1598.51 772.582 1595.05 775.665 1590.82 777.127 1582.65 777.008 1575.39 777.473 1566.33 775.079 1556.82 773.111 1549.17 770.638 1541.49 769.509 1538.4 768.104 1535.96C767.504 1534.62 767.759 1535.08 767.453 1534.54L767.154 1533.74 766.343 1531.77 764.958 1529.65 763.853 1528.01 762.837 1526.8 761.508 1525.62 760.684 1524.47 759.476 1523.22 758.549 1522.46 757.674 1521.49 756.255 1519.88 755.347 1519.43 753.967 1518.43 752.708 1517.37 751.014 1516.4 749.895 1515.59 749.109 1515.06 747.658 1513.95 746.731 1513.18 745.42 1512.32 744.704 1511.92 743.604 1511.42 741.929 1510.76 740.637 1510.2 738.981 1509.86 737.951 1509.48 736.467 1508.88 734.479 1508.24 732.7 1507.97 730.955 1507.19 729.752 1507.07 728.236 1506.97 726.196 1506.53C724.946 1506.41 725.341 1506.21 724.871 1506.48L723.598 1506.25 721.839 1506.29 719.695 1506.22 717.449 1506.55 716.195 1506.63 714.941 1506.7 713.636 1506.97 711.493 1506.91 710.046 1506.93 708.774 1506.69C707.473 1506.77 707.882 1506.56 707.398 1506.84L706.771 1506.88 704.736 1507.57 703.065 1508.05 700.997 1509.24 700.581 1509.65 699.332 1510.86 698.186 1511.69 696.712 1513.36 695.45 1515.39 693.644 1516.76 691.979 1518.38 691.235 1519.62 690.791 1521.67 689.23 1527.13 688.472 1529.2 688.825 1534.04 688.742 1538.97 690.785 1547.87 691.591 1552.94 693.016 1559.93 694.76 1568.03 696.793 1574.67 697.978 1578.7 700.366 1582.85 706.24 1587.42 710.336 1591.72 714.745 1596 720.133 1600.85 723.349 1603.06 726.161 1604.85 730.228 1606.56 734.687 1606.42 738.674 1605.74C739.961 1605.52 739.459 1605.56 740.172 1605.52L743.428 1605.26 746.269 1605.4 749.283 1605.28 751.674 1606.34 753.865 1609.31 754.497 1610.41 756.22 1613.96C756.749 1615.65 756.393 1614.83 757.311 1616.42L757.756 1618.61C757.933 1619.1 758.125 1619.59 758.286 1620.09 758.331 1620.23 758.315 1620.39 758.374 1620.53 758.488 1620.79 758.656 1621.02 758.797 1621.26L759.26 1623.76C759.691 1625.13 759.433 1624.62 759.86 1625.36L760.286 1627.23 760.675 1628.47 761.064 1629.71C761.193 1630.12 761.356 1630.53 761.453 1630.95 761.499 1631.15 761.49 1631.58 761.49 1631.58L762.038 1633.38 762.549 1634.54 762.675 1635.61C763.106 1636.98 762.849 1636.48 763.275 1637.22L763.243 1637.72 763.458 1639.22 764.553 1638.59 765.924 1637.31 766.424 1636.2 766.681 1635.24 767.406 1633.68 768.04 1627.46Z" stroke="#075044" stroke-width="3.21663" stroke-linecap="butt" stroke-linejoin="miter" stroke-miterlimit="8" stroke-opacity="1" fill="#1FC2A7" fill-rule="evenodd" fill-opacity="1"/><path d="M700.472 1584.23 703.716 1591.13 705.492 1594.97 708.297 1598.89 711.111 1600.86 712.179 1601.55 715.208 1603.88 717.345 1605.26 718.804 1606.06 720.53 1607.02 721.599 1607.71 723.378 1608.49 731.369 1609.15 733.396 1609.78 736.31 1610.24 738.689 1610.35 740.983 1611.15 743.321 1613.72 744.089 1614.74 746.736 1619.23 749.027 1623.11 751.226 1626.56 753.555 1631.06 754.9 1634.19 756.761 1637.34 758.211 1640.08 761.216 1640.97 763.347 1641.23 764.21 1639.6 764.472 1638.65 758.133 1618.94 755.728 1613.18 755.384 1611.75 753.237 1608.11 750.065 1605.54 745.535 1604.86 736.008 1606.36 730.186 1606.58 723.905 1603.5 714.624 1596.45 700.472 1584.23Z" stroke="#075044" stroke-width="3.21663" stroke-linecap="butt" stroke-linejoin="miter" stroke-miterlimit="8" stroke-opacity="1" fill="#1FC2A7" fill-rule="evenodd" fill-opacity="1"/><path d="M752.473 1641.83 737.435 1636.36 721.275 1630.06 708.495 1625.4 697.513 1620.18 693.589 1617.89 689.981 1612.48 687.407 1607.46 685.167 1602.73 683.034 1598.75 680.85 1594.96 678.389 1591.83 675.877 1588.88 672.401 1585.68 667.894 1582.1 660.57 1577.86 652.32 1574 645.757 1571.93 643.165 1570.82 638.752 1568.81 630.513 1567.22 621.303 1567.33 612.417 1569.7 600.551 1573.95 596.318 1577.05 590.178 1579.94 584.659 1584.76 581.581 1588.17 578.643 1591.81 574.171 1596.19 571.417 1601.85 568.243 1615.25 567.472 1626.61 569.499 1638.29 574.324 1650.33 577.297 1654.63 592.018 1667.45 610.123 1678.81 623.79 1682.48 634.78 1685.73 646.615 1686.22 656.867 1684.53 670.258 1677.28 680.892 1667.24 685.49 1659.69 689.129 1648.8 693.507 1642.85 699.679 1639.44 708.147 1637.49 718.048 1639.42 747.457 1649.78 749.516 1645.17 752.473 1641.83Z" stroke="#075044" stroke-width="3.21663" stroke-linecap="butt" stroke-linejoin="miter" stroke-miterlimit="8" stroke-opacity="1" fill="#1FC2A7" fill-rule="evenodd" fill-opacity="1"/><path d="M783.638 1675.23 791.282 1695.09 798.169 1702.45 802.515 1704.32 808.815 1709.28 811.798 1711.61 815.056 1720.57 816.472 1728.33 815.039 1740.14 810.246 1747.57 800.342 1754.06 797.026 1755.63 791.612 1756.96 787.206 1757.23 783.458 1755.81 779.567 1754.16 775.711 1752.01 773.305 1749.84 770.016 1745.58 768.587 1742.84 767.741 1741.39 766.801 1738.37 766.129 1736.65 765.964 1734.98 765.625 1733.55 765.113 1732.39 765.409 1732.06 765.07 1730.64 764.981 1730.2 764.572 1728.66 764.482 1728.23 764.548 1727.22 764.472 1725.97 764.641 1724.58 765.194 1723.29C765.428 1721.62 765.683 1722.17 765.274 1721.47L765.377 1721.08 765.527 1719.39 765.414 1717.51 765.968 1716.22 768.732 1712.86 772.925 1708.03 776.776 1704.85 779.007 1703.09 780.146 1700.02 780.194 1698.69 779.726 1692.01 779.147 1687.66C778.6 1686.14 778.878 1686.63 778.545 1686.06L777.413 1682.99 783.638 1675.23Z" stroke="#075044" stroke-width="3.21663" stroke-linecap="butt" stroke-linejoin="miter" stroke-miterlimit="8" stroke-opacity="1" fill="#1FC2A7" fill-rule="evenodd" fill-opacity="1"/><path d="M787.052 1615.46 792.504 1621.86 795.472 1627.42 795.222 1634.78 789.754 1640.58C787.916 1641.56 786.077 1642.54 784.238 1643.52L780.935 1646.01 776.208 1647.23 772.623 1646.19 769.124 1644.46 766.138 1642.77 763.472 1641.06 764.1 1638.78 767.312 1635.85 769.034 1632.64 769.123 1628.89 769.542 1627.38 770.964 1624.49 772.144 1622.87 773.377 1621.05 774.556 1619.42 775.261 1618.39 776.603 1617.31 778.583 1616.2 780.315 1615.23 787.052 1615.46Z" stroke="#075044" stroke-width="3.21663" stroke-linecap="butt" stroke-linejoin="miter" stroke-miterlimit="8" stroke-opacity="1" fill="#1FC2A7" fill-rule="evenodd" fill-opacity="1"/><path d="M753.217 1693.87 762.243 1694.22C763.452 1693.57 764.661 1692.92 765.87 1692.26L768.359 1691.47 770.443 1690.25 772.083 1687.97 773.408 1685.7 774.963 1684.13 776.92 1681.82 783.704 1675.38 785.146 1671.88 786.117 1668.99 786.475 1666.47 787.026 1663.98 787.473 1661.9 786.232 1659.15C785.679 1657.87 785.931 1658.34 785.575 1657.72L784.656 1656.1 784.019 1654.98 782.886 1652.99 782.037 1651.5 780.834 1649.39 780.074 1648.34 778.225 1647.11 775.749 1647.07 773.905 1646.99 768.259 1644.82 762.868 1640.53 757.935 1640.76 755.176 1640.22 752.248 1641.1 749.193 1645.21 747.558 1648.65 746.163 1650.79 745.729 1652.04 745.631 1653.59 745.245 1657.79 745.444 1659 745.628 1661.05 745.827 1662.25 746.025 1663.46C745.85 1664.93 745.62 1664.47 745.926 1665.01L745.738 1666.11 745.484 1668.25 745.07 1669.82 744.514 1671.14 744.472 1673.64C744.629 1675.15 744.386 1674.64 744.76 1675.3L744.605 1675.89 744.945 1677.34C744.819 1678.67 744.624 1678.21 744.969 1678.82L744.833 1679.73C745.338 1681.25 745.419 1680.65 745.191 1681.51L745.371 1682.39 745.362 1684.39 745.986 1686.34 746.57 1687.66 746.924 1688.28 748.127 1690.39 748.764 1691.51 753.217 1693.87Z" stroke="#075044" stroke-width="3.21663" stroke-linecap="butt" stroke-linejoin="miter" stroke-miterlimit="8" stroke-opacity="1" fill="#1FC2A7" fill-rule="evenodd" fill-opacity="1"/></g></g></svg>