<svg width="220" height="220" xmlns="http://www.w3.org/2000/svg" xmlns:xlink="http://www.w3.org/1999/xlink" xml:space="preserve" overflow="hidden"><g transform="translate(-1402 -1210)"><g><rect x="1406" y="1425" width="214" height="3.00012" fill="#595959" fill-opacity="1"/><rect x="1406" y="1212" width="3.00012" height="214" fill="#595959" fill-opacity="1"/><rect x="1483" y="1227" width="1" height="171" fill="#595959" fill-opacity="1"/><rect x="1479.5" y="1305.5" width="10" height="77" stroke="#024A5D" stroke-width="3.21663" stroke-linecap="butt" stroke-linejoin="miter" stroke-miterlimit="8" stroke-opacity="1" fill="#0BB5DD" fill-opacity="1"/><rect x="1481" y="1227" width="5.00012" height="2.00012" fill="#595959" fill-opacity="1"/><rect x="1480" y="1397" width="6.00024" height="1" fill="#595959" fill-opacity="1"/><rect x="1529" y="1334" width="1" height="74.9999" fill="#595959" fill-opacity="1"/><rect x="1525.5" y="1357.5" width="10" height="37.0001" stroke="#212121" stroke-width="3.21663" stroke-linecap="butt" stroke-linejoin="miter" stroke-miterlimit="8" stroke-opacity="1" fill="#595959" fill-opacity="1"/><rect x="1528" y="1334" width="5.00012" height="0.999634" fill="#595959" fill-opacity="1"/><rect x="1526" y="1408" width="6.00024" height="1" fill="#595959" fill-opacity="1"/><rect x="1582" y="1264" width="2.00012" height="133" fill="#595959" fill-opacity="1"/><rect x="1579.5" y="1303.5" width="8.99988" height="77" stroke="#6C4F00" stroke-width="3.21663" stroke-linecap="butt" stroke-linejoin="miter" stroke-miterlimit="8" stroke-opacity="1" fill="#FFC000" fill-opacity="1"/><rect x="1581" y="1264" width="5.00012" height="1" fill="#595959" fill-opacity="1"/><rect x="1580" y="1396" width="5.00012" height="1" fill="#595959" fill-opacity="1"/><rect x="1441" y="1283" width="1" height="107" fill="#595959" fill-opacity="1"/><rect x="1437.5" y="1313.5" width="10" height="41.9999" stroke="#075044" stroke-width="3.21663" stroke-linecap="butt" stroke-linejoin="miter" stroke-miterlimit="8" stroke-opacity="1" fill="#1FC2A7" fill-opacity="1"/><rect x="1439" y="1282" width="5.00012" height="1" fill="#595959" fill-opacity="1"/><rect x="1439" y="1389" width="6.00024" height="1" fill="#595959" fill-opacity="1"/></g></g></svg>