<svg width="229" height="229" xmlns="http://www.w3.org/2000/svg" xmlns:xlink="http://www.w3.org/1999/xlink" xml:space="preserve" overflow="hidden"><g transform="translate(-2488 -614)"><g><path d="M2501.47 622.223 2708.47 622.223 2708.47 829.223 2501.47 829.223Z" stroke="#E7E6E6" stroke-width="11.0567" stroke-linecap="butt" stroke-linejoin="miter" stroke-miterlimit="8" stroke-opacity="1" fill="#FFFFFF" fill-rule="evenodd" fill-opacity="1"/><path d="M2506.47 793.226 2539.47 793.226 2539.47 825.226 2506.47 825.226Z" stroke="#FFFFFF" stroke-width="11.0567" stroke-linecap="butt" stroke-linejoin="miter" stroke-miterlimit="8" stroke-opacity="1" fill="#FFF2CC" fill-rule="evenodd" fill-opacity="1"/><path d="M2507.47 626.224 2539.47 626.224 2539.47 659.224 2507.47 659.224Z" stroke="#FFFFFF" stroke-width="4.82477" stroke-linecap="butt" stroke-linejoin="miter" stroke-miterlimit="8" stroke-opacity="1" fill="#0BB5DD" fill-rule="evenodd" fill-opacity="1"/><path d="M2507.47 660.226 2539.47 660.226 2539.47 692.226 2507.47 692.226Z" stroke="#FFFFFF" stroke-width="4.82477" stroke-linecap="butt" stroke-linejoin="miter" stroke-miterlimit="8" stroke-opacity="1" fill="#CAF3FC" fill-rule="evenodd" fill-opacity="1"/><path d="M2507.47 693.224 2539.47 693.224 2539.47 726.224 2507.47 726.224Z" stroke="#FFFFFF" stroke-width="4.82477" stroke-linecap="butt" stroke-linejoin="miter" stroke-miterlimit="8" stroke-opacity="1" fill="#CAF3FC" fill-rule="evenodd" fill-opacity="1"/><path d="M2506.47 726.226 2539.47 726.226 2539.47 758.227 2506.47 758.227Z" stroke="#FFFFFF" stroke-width="11.0567" stroke-linecap="butt" stroke-linejoin="miter" stroke-miterlimit="8" stroke-opacity="1" fill="#FFF2CC" fill-rule="evenodd" fill-opacity="1"/><path d="M2506.47 759.226 2539.47 759.226 2539.47 791.226 2506.47 791.226Z" stroke="#FFFFFF" stroke-width="11.0567" stroke-linecap="butt" stroke-linejoin="miter" stroke-miterlimit="8" stroke-opacity="1" fill="#FFD966" fill-rule="evenodd" fill-opacity="1"/><path d="M2539.47 793.226 2572.47 793.226 2572.47 825.226 2539.47 825.226Z" stroke="#FFFFFF" stroke-width="11.0567" stroke-linecap="butt" stroke-linejoin="miter" stroke-miterlimit="8" stroke-opacity="1" fill="#FFD966" fill-rule="evenodd" fill-opacity="1"/><path d="M2540.47 626.224 2573.47 626.224 2573.47 659.224 2540.47 659.224Z" stroke="#FFFFFF" stroke-width="4.82477" stroke-linecap="butt" stroke-linejoin="miter" stroke-miterlimit="8" stroke-opacity="1" fill="#CAF3FC" fill-rule="evenodd" fill-opacity="1"/><path d="M2540.47 660.226 2573.47 660.226 2573.47 692.226 2540.47 692.226Z" stroke="#FFFFFF" stroke-width="4.82477" stroke-linecap="butt" stroke-linejoin="miter" stroke-miterlimit="8" stroke-opacity="1" fill="#0BB5DD" fill-rule="evenodd" fill-opacity="1"/><path d="M2540.47 693.224 2573.47 693.224 2573.47 726.224 2540.47 726.224Z" stroke="#FFFFFF" stroke-width="4.82477" stroke-linecap="butt" stroke-linejoin="miter" stroke-miterlimit="8" stroke-opacity="1" fill="#CAF3FC" fill-rule="evenodd" fill-opacity="1"/><path d="M2539.47 726.226 2572.47 726.226 2572.47 758.227 2539.47 758.227Z" stroke="#FFFFFF" stroke-width="11.0567" stroke-linecap="butt" stroke-linejoin="miter" stroke-miterlimit="8" stroke-opacity="1" fill="#FFF2CC" fill-rule="evenodd" fill-opacity="1"/><path d="M2539.47 759.226 2572.47 759.226 2572.47 791.226 2539.47 791.226Z" stroke="#FFFFFF" stroke-width="11.0567" stroke-linecap="butt" stroke-linejoin="miter" stroke-miterlimit="8" stroke-opacity="1" fill="#60DAF7" fill-rule="evenodd" fill-opacity="1"/><path d="M2572.47 793.226 2605.47 793.226 2605.47 825.226 2572.47 825.226Z" stroke="#FFFFFF" stroke-width="11.0567" stroke-linecap="butt" stroke-linejoin="miter" stroke-miterlimit="8" stroke-opacity="1" fill="#FFF2CC" fill-rule="evenodd" fill-opacity="1"/><path d="M2573.47 626.224 2605.47 626.224 2605.47 659.224 2573.47 659.224Z" stroke="#FFFFFF" stroke-width="4.82477" stroke-linecap="butt" stroke-linejoin="miter" stroke-miterlimit="8" stroke-opacity="1" fill="#CAF3FC" fill-rule="evenodd" fill-opacity="1"/><path d="M2573.47 660.226 2605.47 660.226 2605.47 692.226 2573.47 692.226Z" stroke="#FFFFFF" stroke-width="4.82477" stroke-linecap="butt" stroke-linejoin="miter" stroke-miterlimit="8" stroke-opacity="1" fill="#CAF3FC" fill-rule="evenodd" fill-opacity="1"/><path d="M2573.47 693.224 2605.47 693.224 2605.47 726.224 2573.47 726.224Z" stroke="#FFFFFF" stroke-width="4.82477" stroke-linecap="butt" stroke-linejoin="miter" stroke-miterlimit="8" stroke-opacity="1" fill="#0BB5DD" fill-rule="evenodd" fill-opacity="1"/><path d="M2572.47 726.226 2605.47 726.226 2605.47 758.227 2572.47 758.227Z" stroke="#FFFFFF" stroke-width="11.0567" stroke-linecap="butt" stroke-linejoin="miter" stroke-miterlimit="8" stroke-opacity="1" fill="#FFE699" fill-rule="evenodd" fill-opacity="1"/><path d="M2572.47 759.226 2605.47 759.226 2605.47 791.226 2572.47 791.226Z" stroke="#FFFFFF" stroke-width="11.0567" stroke-linecap="butt" stroke-linejoin="miter" stroke-miterlimit="8" stroke-opacity="1" fill="#FFF2CC" fill-rule="evenodd" fill-opacity="1"/><path d="M2605.47 793.226 2638.47 793.226 2638.47 825.226 2605.47 825.226Z" stroke="#FFFFFF" stroke-width="11.0567" stroke-linecap="butt" stroke-linejoin="miter" stroke-miterlimit="8" stroke-opacity="1" fill="#FFF2CC" fill-rule="evenodd" fill-opacity="1"/><path d="M2605.47 626.224 2638.47 626.224 2638.47 659.224 2605.47 659.224Z" stroke="#FFFFFF" stroke-width="11.0567" stroke-linecap="butt" stroke-linejoin="miter" stroke-miterlimit="8" stroke-opacity="1" fill="#FFF2CC" fill-rule="evenodd" fill-opacity="1"/><path d="M2605.47 660.226 2638.47 660.226 2638.47 692.226 2605.47 692.226Z" stroke="#FFFFFF" stroke-width="11.0567" stroke-linecap="butt" stroke-linejoin="miter" stroke-miterlimit="8" stroke-opacity="1" fill="#FFF2CC" fill-rule="evenodd" fill-opacity="1"/><path d="M2605.47 693.224 2638.47 693.224 2638.47 726.224 2605.47 726.224Z" stroke="#FFFFFF" stroke-width="11.0567" stroke-linecap="butt" stroke-linejoin="miter" stroke-miterlimit="8" stroke-opacity="1" fill="#FFE699" fill-rule="evenodd" fill-opacity="1"/><path d="M2606.47 726.226 2638.47 726.226 2638.47 758.226 2606.47 758.226Z" stroke="#FFFFFF" stroke-width="4.82477" stroke-linecap="butt" stroke-linejoin="miter" stroke-miterlimit="8" stroke-opacity="1" fill="#0BB5DD" fill-rule="evenodd" fill-opacity="1"/><path d="M2605.47 759.226 2638.47 759.226 2638.47 791.226 2605.47 791.226Z" stroke="#FFFFFF" stroke-width="11.0567" stroke-linecap="butt" stroke-linejoin="miter" stroke-miterlimit="8" stroke-opacity="1" fill="#FFE699" fill-rule="evenodd" fill-opacity="1"/><path d="M2639.47 793.218 2671.47 793.218 2671.47 826.218 2639.47 826.218Z" stroke="#FFFFFF" stroke-width="4.82477" stroke-linecap="butt" stroke-linejoin="miter" stroke-miterlimit="8" stroke-opacity="1" fill="#0BB5DD" fill-rule="evenodd" fill-opacity="1"/><path d="M2638.47 626.224 2671.47 626.224 2671.47 659.224 2638.47 659.224Z" stroke="#FFFFFF" stroke-width="11.0567" stroke-linecap="butt" stroke-linejoin="miter" stroke-miterlimit="8" stroke-opacity="1" fill="#FFD966" fill-rule="evenodd" fill-opacity="1"/><path d="M2638.47 660.226 2671.47 660.226 2671.47 692.226 2638.47 692.226Z" stroke="#FFFFFF" stroke-width="11.0567" stroke-linecap="butt" stroke-linejoin="miter" stroke-miterlimit="8" stroke-opacity="1" fill="#60DAF7" fill-rule="evenodd" fill-opacity="1"/><path d="M2638.47 693.224 2671.47 693.224 2671.47 726.224 2638.47 726.224Z" stroke="#FFFFFF" stroke-width="11.0567" stroke-linecap="butt" stroke-linejoin="miter" stroke-miterlimit="8" stroke-opacity="1" fill="#FFF2CC" fill-rule="evenodd" fill-opacity="1"/><path d="M2638.47 726.226 2671.47 726.226 2671.47 758.227 2638.47 758.227Z" stroke="#FFFFFF" stroke-width="11.0567" stroke-linecap="butt" stroke-linejoin="miter" stroke-miterlimit="8" stroke-opacity="1" fill="#FFE699" fill-rule="evenodd" fill-opacity="1"/><path d="M2639.47 760.226 2671.47 760.226 2671.47 792.226 2639.47 792.226Z" stroke="#FFFFFF" stroke-width="4.82477" stroke-linecap="butt" stroke-linejoin="miter" stroke-miterlimit="8" stroke-opacity="1" fill="#0BB5DD" fill-rule="evenodd" fill-opacity="1"/><path d="M2672.47 793.218 2704.47 793.218 2704.47 826.218 2672.47 826.218Z" stroke="#FFFFFF" stroke-width="4.82477" stroke-linecap="butt" stroke-linejoin="miter" stroke-miterlimit="8" stroke-opacity="1" fill="#0BB5DD" fill-rule="evenodd" fill-opacity="1"/><path d="M2671.47 626.224 2704.47 626.224 2704.47 659.224 2671.47 659.224Z" stroke="#FFFFFF" stroke-width="11.0567" stroke-linecap="butt" stroke-linejoin="miter" stroke-miterlimit="8" stroke-opacity="1" fill="#FFF2CC" fill-rule="evenodd" fill-opacity="1"/><path d="M2671.47 660.226 2704.47 660.226 2704.47 692.226 2671.47 692.226Z" stroke="#FFFFFF" stroke-width="11.0567" stroke-linecap="butt" stroke-linejoin="miter" stroke-miterlimit="8" stroke-opacity="1" fill="#FFD966" fill-rule="evenodd" fill-opacity="1"/><path d="M2671.47 693.224 2704.47 693.224 2704.47 726.224 2671.47 726.224Z" stroke="#FFFFFF" stroke-width="11.0567" stroke-linecap="butt" stroke-linejoin="miter" stroke-miterlimit="8" stroke-opacity="1" fill="#FFF2CC" fill-rule="evenodd" fill-opacity="1"/><path d="M2671.47 726.226 2704.47 726.226 2704.47 758.227 2671.47 758.227Z" stroke="#FFFFFF" stroke-width="11.0567" stroke-linecap="butt" stroke-linejoin="miter" stroke-miterlimit="8" stroke-opacity="1" fill="#FFF2CC" fill-rule="evenodd" fill-opacity="1"/><path d="M2672.47 760.226 2704.47 760.226 2704.47 792.226 2672.47 792.226Z" stroke="#FFFFFF" stroke-width="4.82477" stroke-linecap="butt" stroke-linejoin="miter" stroke-miterlimit="8" stroke-opacity="1" fill="#0BB5DD" fill-rule="evenodd" fill-opacity="1"/><rect x="2501" y="836" width="207" height="3.00012" fill="#595959" fill-opacity="1"/><rect x="2491" y="622" width="2.99976" height="207" fill="#595959" fill-opacity="1"/></g></g></svg>