<svg width="262" height="294" xmlns="http://www.w3.org/2000/svg" xmlns:xlink="http://www.w3.org/1999/xlink" xml:space="preserve" overflow="hidden"><g transform="translate(-1970 -1090)"><g><path d="M2222.47 1245.23C2217.78 1273.83 2213.09 1302.42 2190.28 1310.43 2167.47 1318.44 2107.11 1298.42 2085.65 1293.28 2064.18 1288.12 2069.93 1273.44 2061.5 1279.55 2053.07 1285.64 2026.81 1314.82 2035.05 1329.88 2043.29 1344.94 2095.22 1367.06 2110.94 1369.92 2126.65 1372.78 2128.38 1354.67 2129.34 1347.04 2130.3 1339.41 2112.28 1336.93 2116.69 1324.16 2121.09 1311.38 2144.67 1277.83 2155.78 1270.39 2166.9 1262.96 2179.16 1267.15 2183.38 1279.55 2187.6 1291.94 2176.48 1344.56 2181.08 1344.76" stroke="#A5A5A5" stroke-width="19.2987" stroke-linecap="round" stroke-linejoin="round" stroke-miterlimit="10" stroke-opacity="1" fill="none" fill-rule="evenodd"/><path d="M2093.47 1325.23C2059.44 1321.03 2025.4 1316.83 2007.67 1306.91 1989.94 1297 1981.75 1277.92 1987.08 1265.71 1992.42 1253.5 2026.36 1241.3 2039.7 1233.67 2053.05 1226.04 2064.11 1229.47 2067.16 1219.94 2070.21 1210.4 2061.63 1185.22 2058.01 1176.45 2054.39 1167.67 2050.76 1161.95 2045.43 1167.29 2040.09 1172.63 2021.78 1194.38 2025.98 1208.49 2030.17 1222.61 2062.97 1245.11 2070.6 1251.98" stroke="#507289" stroke-width="19.2987" stroke-linecap="round" stroke-linejoin="round" stroke-miterlimit="10" stroke-opacity="1" fill="none" fill-rule="evenodd"/><path d="M2101.65 1303.22C2099.28 1274.91 2096.89 1246.58 2097.76 1232.15 2098.63 1217.72 2095.16 1209.97 2106.85 1216.65 2118.54 1223.32 2152.11 1268.55 2167.92 1272.21 2183.72 1275.87 2196.5 1247.44 2201.7 1238.61 2206.89 1229.78 2204.08 1221.82 2199.1 1219.23 2194.12 1216.65 2193.25 1214.06 2171.81 1223.11 2150.38 1232.15 2110.43 1252.83 2070.47 1273.5" stroke="#1FC2A7" stroke-width="19.2987" stroke-linecap="round" stroke-linejoin="round" stroke-miterlimit="10" stroke-opacity="1" fill="none" fill-rule="evenodd"/><path d="M2030.65 1184.05C2036.46 1159.45 2042.26 1134.86 2048.71 1122.19 2055.16 1109.51 2062.47 1110.59 2069.36 1108.01 2076.24 1105.43 2080.75 1103.93 2089.99 1106.72 2099.24 1109.51 2118.38 1116.6 2124.83 1124.77 2131.28 1132.93 2131.07 1148.18 2128.7 1155.7 2126.33 1163.21 2119.89 1164.5 2110.64 1169.87 2101.39 1175.24 2085.05 1184.69 2073.22 1187.92 2061.4 1191.14 2051.29 1198.01 2039.68 1189.2 2028.07 1180.4 2005.06 1148.61 2003.56 1135.08 2002.05 1121.54 2020.97 1110.59 2030.65 1108.01 2040.32 1105.43 2049.79 1103.5 2061.61 1119.61 2073.44 1135.72 2085.27 1194.14 2101.61 1204.67 2117.95 1215.19 2152.14 1190.28 2159.67 1182.76 2167.19 1175.24 2148.91 1166.44 2146.76 1159.56" stroke="#0BB5DD" stroke-width="19.2987" stroke-linecap="round" stroke-linejoin="round" stroke-miterlimit="10" stroke-opacity="1" fill="none" fill-rule="evenodd"/></g></g></svg>