<svg width="344" height="202" xmlns="http://www.w3.org/2000/svg" xmlns:xlink="http://www.w3.org/1999/xlink" xml:space="preserve" overflow="hidden"><g transform="translate(-2465 -1136)"><g><path d="M2490.17 1150.22 2654.03 1150.22 2654.03 1306.71C2654.03 1313.16 2659.29 1318.39 2665.77 1318.39L2767.11 1318.39C2773.59 1318.39 2778.84 1313.16 2778.84 1306.71L2778.84 1150.22 2786.78 1150.22C2796 1150.22 2803.47 1157.66 2803.47 1166.84L2803.47 1316.61C2803.47 1325.78 2796 1333.22 2786.78 1333.22L2490.17 1333.22C2480.94 1333.22 2473.47 1325.78 2473.47 1316.61L2473.47 1166.84C2473.47 1157.66 2480.94 1150.22 2490.17 1150.22Z" stroke="#024A5D" stroke-width="7.23698" stroke-linecap="butt" stroke-linejoin="miter" stroke-miterlimit="8" stroke-opacity="1" fill="#FFFFFF" fill-rule="evenodd" fill-opacity="1"/><path d="M2679.47 1142.22 2734.47 1142.22 2734.47 1298.56C2734.47 1305 2732.16 1310.22 2729.3 1310.22L2684.65 1310.22C2681.79 1310.22 2679.47 1305 2679.47 1298.56L2679.47 1142.22Z" stroke="#212121" stroke-width="3.21663" stroke-linecap="butt" stroke-linejoin="miter" stroke-miterlimit="8" stroke-opacity="1" fill="#595959" fill-rule="evenodd" fill-opacity="1"/><path d="M2489.97 1176.3C2489.97 1171.02 2494.26 1166.72 2499.55 1166.72L2627.4 1166.72C2632.68 1166.72 2636.97 1171.02 2636.97 1176.3L2636.97 1241.15C2636.97 1246.43 2632.68 1250.72 2627.4 1250.72L2499.55 1250.72C2494.26 1250.72 2489.97 1246.43 2489.97 1241.15Z" fill="#595959" fill-rule="evenodd" fill-opacity="1"/><path d="M2497.97 1180.97C2497.97 1178.07 2500.31 1175.72 2503.2 1175.72L2559.75 1175.72C2562.63 1175.72 2564.97 1178.07 2564.97 1180.97L2564.97 1216.48C2564.97 1219.37 2562.63 1221.72 2559.75 1221.72L2503.2 1221.72C2500.31 1221.72 2497.97 1219.37 2497.97 1216.48Z" fill="#1FC2A7" fill-rule="evenodd" fill-opacity="1"/><path d="M2600 1176.84C2600.81 1176.03 2602.14 1176.03 2602.95 1176.84L2608.86 1182.75C2609.68 1183.57 2609.68 1184.89 2608.86 1185.71L2602.95 1191.62C2602.14 1192.43 2600.81 1192.43 2600 1191.62L2594.09 1185.71C2593.27 1184.89 2593.27 1183.57 2594.09 1182.75Z" stroke="#024A5D" stroke-width="3.21663" stroke-linecap="butt" stroke-linejoin="miter" stroke-miterlimit="8" stroke-opacity="1" fill="#FFFFFF" fill-rule="evenodd" fill-opacity="1"/><path d="M2585.4 1191.87C2586.27 1191 2587.67 1191 2588.54 1191.87L2594.83 1198.15C2595.69 1199.01 2595.69 1200.42 2594.83 1201.28L2588.54 1207.56C2587.67 1208.43 2586.27 1208.43 2585.4 1207.56L2579.12 1201.28C2578.26 1200.42 2578.26 1199.01 2579.12 1198.15Z" stroke="#024A5D" stroke-width="3.21663" stroke-linecap="butt" stroke-linejoin="miter" stroke-miterlimit="8" stroke-opacity="1" fill="#FFFFFF" fill-rule="evenodd" fill-opacity="1"/><path d="M2614.4 1190.84C2615.27 1190.03 2616.67 1190.03 2617.54 1190.84L2623.82 1196.75C2624.69 1197.57 2624.69 1198.89 2623.82 1199.71L2617.54 1205.62C2616.67 1206.44 2615.27 1206.44 2614.4 1205.62L2608.12 1199.71C2607.25 1198.89 2607.25 1197.57 2608.12 1196.75Z" stroke="#024A5D" stroke-width="3.21663" stroke-linecap="butt" stroke-linejoin="miter" stroke-miterlimit="8" stroke-opacity="1" fill="#FFFFFF" fill-rule="evenodd" fill-opacity="1"/><path d="M2600 1205.85C2600.82 1205.03 2602.14 1205.03 2602.95 1205.85L2608.86 1211.76C2609.68 1212.57 2609.68 1213.9 2608.86 1214.71L2602.95 1220.62C2602.14 1221.44 2600.82 1221.44 2600 1220.62L2594.09 1214.71C2593.27 1213.9 2593.27 1212.57 2594.09 1211.76Z" stroke="#024A5D" stroke-width="3.21663" stroke-linecap="butt" stroke-linejoin="miter" stroke-miterlimit="8" stroke-opacity="1" fill="#FFFFFF" fill-rule="evenodd" fill-opacity="1"/><path d="M2517.08 1184.74C2517.84 1184.74 2518.48 1184.85 2518.99 1185.08 2519.49 1185.3 2519.89 1185.63 2520.19 1186.06 2520.48 1186.48 2520.68 1187 2520.8 1187.62 2520.91 1188.23 2520.97 1188.92 2520.97 1189.7 2520.97 1190.47 2520.9 1191.17 2520.75 1191.79 2520.61 1192.41 2520.37 1192.94 2520.05 1193.38 2519.73 1193.82 2519.3 1194.15 2518.78 1194.38 2518.26 1194.62 2517.62 1194.74 2516.86 1194.74 2516.1 1194.74 2515.46 1194.62 2514.96 1194.4 2514.46 1194.17 2514.06 1193.84 2513.76 1193.42 2513.47 1193 2513.27 1192.48 2513.15 1191.86 2513.03 1191.24 2512.97 1190.55 2512.97 1189.78 2512.97 1189.01 2513.04 1188.31 2513.19 1187.69 2513.34 1187.06 2513.58 1186.53 2513.9 1186.1 2514.23 1185.66 2514.65 1185.32 2515.18 1185.09 2515.69 1184.86 2516.33 1184.74 2517.08 1184.74ZM2516.99 1186.29C2516.64 1186.29 2516.36 1186.36 2516.14 1186.5 2515.92 1186.64 2515.74 1186.86 2515.61 1187.14 2515.48 1187.42 2515.39 1187.78 2515.34 1188.2 2515.29 1188.62 2515.26 1189.12 2515.26 1189.68 2515.26 1190.36 2515.29 1190.93 2515.36 1191.38 2515.42 1191.83 2515.52 1192.19 2515.66 1192.46 2515.79 1192.72 2515.97 1192.91 2516.18 1193.02 2516.4 1193.12 2516.65 1193.18 2516.95 1193.18 2517.18 1193.18 2517.37 1193.14 2517.55 1193.08 2517.72 1193.02 2517.87 1192.93 2518 1192.8 2518.13 1192.68 2518.24 1192.52 2518.32 1192.34 2518.41 1192.14 2518.48 1191.92 2518.54 1191.68 2518.59 1191.43 2518.63 1191.15 2518.65 1190.84 2518.67 1190.52 2518.68 1190.18 2518.68 1189.8 2518.68 1189.34 2518.67 1188.94 2518.64 1188.58 2518.61 1188.23 2518.56 1187.93 2518.5 1187.67 2518.44 1187.41 2518.37 1187.19 2518.28 1187.01 2518.19 1186.84 2518.08 1186.69 2517.95 1186.58 2517.83 1186.48 2517.68 1186.4 2517.52 1186.36 2517.36 1186.31 2517.18 1186.29 2516.99 1186.29Z" fill="#FFFFFF" fill-rule="evenodd" fill-opacity="1"/><path d="M2530.57 1184.74C2531.24 1184.74 2531.8 1184.85 2532.24 1185.08 2532.68 1185.3 2533.03 1185.63 2533.29 1186.06 2533.54 1186.48 2533.72 1187 2533.82 1187.62 2533.92 1188.23 2533.98 1188.92 2533.98 1189.7 2533.98 1190.47 2533.91 1191.17 2533.78 1191.79 2533.66 1192.41 2533.45 1192.94 2533.17 1193.38 2532.89 1193.82 2532.51 1194.15 2532.06 1194.38 2531.6 1194.62 2531.04 1194.74 2530.38 1194.74 2529.71 1194.74 2529.15 1194.62 2528.72 1194.4 2528.28 1194.17 2527.93 1193.84 2527.67 1193.42 2527.41 1193 2527.24 1192.48 2527.13 1191.86 2527.03 1191.24 2526.97 1190.55 2526.97 1189.78 2526.97 1189.01 2527.04 1188.31 2527.17 1187.69 2527.3 1187.06 2527.5 1186.53 2527.79 1186.1 2528.08 1185.66 2528.44 1185.32 2528.9 1185.09 2529.35 1184.86 2529.92 1184.74 2530.57 1184.74ZM2530.49 1186.29C2530.19 1186.29 2529.94 1186.36 2529.75 1186.5 2529.55 1186.64 2529.4 1186.86 2529.28 1187.14 2529.17 1187.42 2529.09 1187.78 2529.05 1188.2 2529 1188.62 2528.98 1189.12 2528.98 1189.68 2528.98 1190.36 2529 1190.93 2529.06 1191.38 2529.12 1191.83 2529.21 1192.19 2529.32 1192.46 2529.44 1192.72 2529.6 1192.91 2529.78 1193.02 2529.97 1193.12 2530.2 1193.18 2530.46 1193.18 2530.65 1193.18 2530.83 1193.14 2530.98 1193.08 2531.13 1193.02 2531.26 1192.93 2531.38 1192.8 2531.49 1192.68 2531.58 1192.52 2531.66 1192.34 2531.73 1192.14 2531.8 1191.92 2531.84 1191.68 2531.89 1191.43 2531.93 1191.15 2531.95 1190.84 2531.96 1190.52 2531.97 1190.18 2531.97 1189.8 2531.97 1189.34 2531.96 1188.94 2531.93 1188.58 2531.91 1188.23 2531.87 1187.93 2531.81 1187.67 2531.76 1187.41 2531.7 1187.19 2531.62 1187.01 2531.54 1186.84 2531.44 1186.69 2531.33 1186.58 2531.23 1186.48 2531.1 1186.4 2530.96 1186.36 2530.81 1186.31 2530.66 1186.29 2530.49 1186.29Z" fill="#FFFFFF" fill-rule="evenodd" fill-opacity="1"/><path d="M2547.32 1184.74C2547.86 1184.74 2548.33 1184.8 2548.74 1184.93 2549.15 1185.06 2549.49 1185.24 2549.75 1185.47 2550.02 1185.7 2550.22 1185.97 2550.36 1186.29 2550.49 1186.6 2550.55 1186.94 2550.55 1187.31 2550.55 1187.63 2550.52 1187.94 2550.45 1188.25 2550.39 1188.56 2550.26 1188.9 2550.06 1189.25 2549.85 1189.61 2549.56 1190 2549.19 1190.44 2548.82 1190.87 2548.33 1191.37 2547.72 1191.94L2546.5 1193.12 2550.61 1193.12C2550.66 1193.12 2550.71 1193.14 2550.76 1193.16 2550.8 1193.2 2550.85 1193.24 2550.87 1193.3 2550.91 1193.37 2550.93 1193.45 2550.95 1193.56 2550.97 1193.66 2550.97 1193.78 2550.97 1193.92 2550.97 1194.07 2550.97 1194.2 2550.95 1194.3 2550.94 1194.4 2550.92 1194.49 2550.89 1194.56 2550.87 1194.62 2550.83 1194.67 2550.78 1194.7 2550.74 1194.72 2550.69 1194.74 2550.64 1194.74L2544.64 1194.74C2544.53 1194.74 2544.42 1194.72 2544.34 1194.7 2544.25 1194.68 2544.18 1194.65 2544.13 1194.59 2544.07 1194.53 2544.04 1194.44 2544.01 1194.34 2543.99 1194.22 2543.97 1194.08 2543.97 1193.9 2543.97 1193.74 2543.98 1193.59 2543.99 1193.47 2544.01 1193.36 2544.04 1193.25 2544.08 1193.16 2544.13 1193.06 2544.18 1192.97 2544.25 1192.88 2544.32 1192.79 2544.41 1192.7 2544.51 1192.59L2546.32 1190.76C2546.68 1190.41 2546.97 1190.09 2547.19 1189.8 2547.41 1189.5 2547.58 1189.24 2547.7 1189 2547.83 1188.76 2547.91 1188.54 2547.96 1188.34 2548 1188.13 2548.03 1187.94 2548.03 1187.76 2548.03 1187.59 2548 1187.44 2547.94 1187.28 2547.89 1187.14 2547.8 1187 2547.7 1186.89 2547.58 1186.78 2547.44 1186.7 2547.28 1186.63 2547.12 1186.57 2546.92 1186.54 2546.69 1186.54 2546.37 1186.54 2546.09 1186.58 2545.85 1186.65 2545.6 1186.72 2545.39 1186.81 2545.2 1186.9 2545.02 1187 2544.86 1187.08 2544.74 1187.16 2544.62 1187.24 2544.52 1187.28 2544.45 1187.28 2544.4 1187.28 2544.36 1187.26 2544.32 1187.24 2544.29 1187.2 2544.26 1187.16 2544.24 1187.08 2544.22 1187.01 2544.2 1186.92 2544.19 1186.8 2544.18 1186.68 2544.17 1186.54 2544.17 1186.36 2544.17 1186.24 2544.17 1186.15 2544.18 1186.07 2544.19 1185.99 2544.2 1185.92 2544.22 1185.86 2544.23 1185.8 2544.25 1185.76 2544.28 1185.71 2544.31 1185.67 2544.35 1185.62 2544.42 1185.56 2544.49 1185.5 2544.61 1185.42 2544.79 1185.32 2544.97 1185.23 2545.19 1185.14 2545.46 1185.05 2545.72 1184.96 2546.01 1184.89 2546.32 1184.83 2546.65 1184.77 2546.98 1184.74 2547.32 1184.74Z" fill="#FFFFFF" fill-rule="evenodd" fill-opacity="1"/><path d="M2540.14 1184.74C2540.42 1184.74 2540.67 1184.74 2540.86 1184.76 2541.07 1184.77 2541.23 1184.79 2541.34 1184.82 2541.46 1184.84 2541.55 1184.88 2541.6 1184.92 2541.66 1184.96 2541.69 1185.01 2541.69 1185.06L2541.69 1191.03 2542.64 1191.03C2542.74 1191.03 2542.81 1191.09 2542.88 1191.22 2542.94 1191.34 2542.97 1191.55 2542.97 1191.84 2542.97 1192.1 2542.94 1192.3 2542.88 1192.44 2542.83 1192.57 2542.75 1192.64 2542.64 1192.64L2541.69 1192.64 2541.69 1194.43C2541.69 1194.48 2541.67 1194.52 2541.64 1194.56 2541.6 1194.6 2541.55 1194.64 2541.47 1194.66 2541.38 1194.68 2541.27 1194.7 2541.14 1194.72 2541.01 1194.73 2540.83 1194.74 2540.62 1194.74 2540.42 1194.74 2540.25 1194.73 2540.12 1194.72 2539.98 1194.7 2539.87 1194.68 2539.79 1194.66 2539.71 1194.64 2539.66 1194.6 2539.63 1194.56 2539.6 1194.52 2539.58 1194.48 2539.58 1194.43L2539.58 1192.64 2535.45 1192.64C2535.38 1192.64 2535.31 1192.63 2535.25 1192.61 2535.18 1192.6 2535.13 1192.55 2535.09 1192.49 2535.05 1192.42 2535.02 1192.34 2535 1192.22 2534.98 1192.1 2534.97 1191.94 2534.97 1191.74 2534.97 1191.57 2534.98 1191.43 2534.99 1191.31 2534.99 1191.19 2535.01 1191.08 2535.02 1190.98 2535.04 1190.89 2535.07 1190.8 2535.11 1190.71 2535.15 1190.62 2535.19 1190.53 2535.25 1190.44L2538.59 1185C2538.62 1184.96 2538.67 1184.92 2538.74 1184.88 2538.8 1184.85 2538.9 1184.82 2539.02 1184.8 2539.14 1184.78 2539.29 1184.76 2539.47 1184.75 2539.66 1184.74 2539.88 1184.74 2540.14 1184.74ZM2539.56 1186.48 2536.72 1191.03 2539.58 1191.03 2539.58 1186.48 2539.56 1186.48Z" fill="#FFFFFF" fill-rule="evenodd" fill-opacity="1"/><path d="M2523.99 1192.74C2524.37 1192.74 2524.62 1192.8 2524.77 1192.94 2524.91 1193.08 2524.98 1193.34 2524.98 1193.72 2524.98 1194.12 2524.91 1194.39 2524.76 1194.53 2524.62 1194.67 2524.36 1194.74 2523.98 1194.74 2523.6 1194.74 2523.34 1194.67 2523.2 1194.53 2523.05 1194.4 2522.98 1194.14 2522.98 1193.76 2522.98 1193.36 2523.06 1193.08 2523.2 1192.94 2523.35 1192.8 2523.61 1192.74 2523.99 1192.74Z" fill="#FFFFFF" fill-rule="evenodd" fill-opacity="1"/><path d="M2526.56 1203.75C2527.23 1203.75 2527.79 1203.85 2528.24 1204.06 2528.67 1204.26 2529.02 1204.55 2529.28 1204.93 2529.54 1205.32 2529.72 1205.79 2529.82 1206.34 2529.92 1206.89 2529.97 1207.51 2529.97 1208.21 2529.97 1208.91 2529.91 1209.53 2529.78 1210.09 2529.65 1210.65 2529.45 1211.13 2529.16 1211.53 2528.88 1211.92 2528.51 1212.22 2528.05 1212.43 2527.6 1212.64 2527.04 1212.75 2526.38 1212.75 2525.71 1212.75 2525.15 1212.64 2524.71 1212.44 2524.27 1212.24 2523.93 1211.94 2523.67 1211.56 2523.41 1211.18 2523.23 1210.71 2523.12 1210.16 2523.02 1209.6 2522.97 1208.98 2522.97 1208.28 2522.97 1207.59 2523.03 1206.97 2523.16 1206.4 2523.29 1205.84 2523.5 1205.36 2523.79 1204.97 2524.07 1204.58 2524.44 1204.27 2524.9 1204.06 2525.35 1203.85 2525.91 1203.75 2526.56 1203.75ZM2526.48 1205.14C2526.18 1205.14 2525.94 1205.21 2525.75 1205.34 2525.55 1205.46 2525.4 1205.66 2525.28 1205.91 2525.17 1206.16 2525.08 1206.49 2525.05 1206.86 2525 1207.24 2524.98 1207.69 2524.98 1208.2 2524.98 1208.81 2525 1209.32 2525.06 1209.73 2525.12 1210.13 2525.2 1210.46 2525.32 1210.7 2525.43 1210.93 2525.59 1211.1 2525.78 1211.2 2525.96 1211.29 2526.19 1211.35 2526.45 1211.35 2526.65 1211.35 2526.82 1211.31 2526.97 1211.26 2527.12 1211.2 2527.26 1211.12 2527.37 1211.01 2527.48 1210.9 2527.58 1210.75 2527.65 1210.59 2527.73 1210.41 2527.79 1210.21 2527.84 1210 2527.89 1209.77 2527.92 1209.51 2527.94 1209.24 2527.95 1208.95 2527.96 1208.64 2527.96 1208.3 2527.96 1207.89 2527.95 1207.53 2527.92 1207.21 2527.9 1206.89 2527.86 1206.62 2527.81 1206.39 2527.75 1206.15 2527.69 1205.96 2527.61 1205.8 2527.54 1205.64 2527.44 1205.51 2527.33 1205.41 2527.22 1205.32 2527.09 1205.24 2526.95 1205.21 2526.81 1205.16 2526.66 1205.14 2526.48 1205.14Z" fill="#FFFFFF" fill-rule="evenodd" fill-opacity="1"/><path d="M2520.14 1203.73C2520.42 1203.73 2520.66 1203.73 2520.86 1203.75 2521.06 1203.76 2521.22 1203.78 2521.34 1203.8 2521.46 1203.82 2521.54 1203.86 2521.6 1203.89 2521.66 1203.93 2521.69 1203.98 2521.69 1204.03L2521.69 1209.39 2522.64 1209.39C2522.74 1209.39 2522.81 1209.45 2522.87 1209.56 2522.94 1209.67 2522.97 1209.86 2522.97 1210.12 2522.97 1210.36 2522.94 1210.53 2522.88 1210.66 2522.82 1210.78 2522.74 1210.84 2522.64 1210.84L2521.69 1210.84 2521.69 1212.45C2521.69 1212.5 2521.67 1212.54 2521.63 1212.58 2521.6 1212.61 2521.54 1212.64 2521.46 1212.66 2521.38 1212.68 2521.27 1212.7 2521.14 1212.71 2521 1212.72 2520.83 1212.73 2520.62 1212.73 2520.42 1212.73 2520.25 1212.72 2520.11 1212.71 2519.98 1212.7 2519.87 1212.68 2519.79 1212.66 2519.71 1212.64 2519.66 1212.61 2519.62 1212.58 2519.59 1212.54 2519.58 1212.5 2519.58 1212.45L2519.58 1210.84 2515.45 1210.84C2515.38 1210.84 2515.3 1210.83 2515.24 1210.82 2515.18 1210.8 2515.13 1210.76 2515.09 1210.71 2515.05 1210.65 2515.02 1210.57 2515 1210.46 2514.98 1210.35 2514.97 1210.21 2514.97 1210.03 2514.97 1209.88 2514.98 1209.75 2514.98 1209.65 2514.99 1209.54 2515 1209.44 2515.02 1209.35 2515.04 1209.27 2515.07 1209.18 2515.1 1209.1 2515.14 1209.02 2515.18 1208.94 2515.24 1208.86L2518.59 1203.97C2518.62 1203.93 2518.67 1203.89 2518.74 1203.86 2518.8 1203.83 2518.9 1203.8 2519.02 1203.78 2519.14 1203.76 2519.29 1203.75 2519.47 1203.74 2519.65 1203.73 2519.87 1203.73 2520.14 1203.73ZM2519.56 1205.29 2516.72 1209.39 2519.58 1209.39 2519.58 1205.29 2519.56 1205.29Z" fill="#FFFFFF" fill-rule="evenodd" fill-opacity="1"/><path d="M2508.79 1203.73 2513.13 1203.73C2513.17 1203.73 2513.21 1203.74 2513.25 1203.77 2513.29 1203.8 2513.32 1203.84 2513.35 1203.9 2513.37 1203.96 2513.39 1204.04 2513.4 1204.14 2513.42 1204.23 2513.42 1204.35 2513.42 1204.49 2513.42 1204.76 2513.39 1204.96 2513.35 1205.08 2513.3 1205.2 2513.22 1205.26 2513.13 1205.26L2509.88 1205.26 2509.88 1207.16C2510.04 1207.14 2510.21 1207.13 2510.36 1207.13 2510.53 1207.12 2510.7 1207.12 2510.88 1207.12 2511.38 1207.12 2511.81 1207.18 2512.2 1207.29 2512.58 1207.4 2512.91 1207.56 2513.17 1207.78 2513.43 1207.99 2513.63 1208.26 2513.77 1208.58 2513.9 1208.91 2513.97 1209.28 2513.97 1209.7 2513.97 1210.18 2513.89 1210.61 2513.72 1210.98 2513.54 1211.36 2513.3 1211.68 2512.98 1211.93 2512.67 1212.19 2512.29 1212.39 2511.85 1212.52 2511.41 1212.66 2510.92 1212.73 2510.39 1212.73 2510.1 1212.73 2509.83 1212.71 2509.58 1212.68 2509.32 1212.64 2509.1 1212.6 2508.89 1212.55 2508.69 1212.49 2508.52 1212.44 2508.39 1212.39 2508.26 1212.34 2508.18 1212.29 2508.14 1212.26 2508.1 1212.22 2508.07 1212.19 2508.05 1212.15 2508.03 1212.1 2508.02 1212.06 2508 1212 2507.99 1211.95 2507.99 1211.87 2507.98 1211.79 2507.97 1211.7 2507.97 1211.59 2507.97 1211.47 2507.97 1211.35 2507.98 1211.24 2507.99 1211.15 2507.99 1211.07 2508.01 1210.99 2508.03 1210.93 2508.05 1210.88 2508.08 1210.84 2508.11 1210.82 2508.14 1210.8 2508.17 1210.79 2508.2 1210.79 2508.25 1210.79 2508.32 1210.81 2508.42 1210.87 2508.52 1210.92 2508.65 1210.98 2508.8 1211.04 2508.96 1211.1 2509.16 1211.16 2509.38 1211.21 2509.61 1211.27 2509.88 1211.29 2510.19 1211.29 2510.47 1211.29 2510.72 1211.27 2510.94 1211.21 2511.17 1211.16 2511.35 1211.07 2511.51 1210.95 2511.66 1210.82 2511.78 1210.68 2511.87 1210.49 2511.95 1210.31 2512 1210.09 2512 1209.83 2512 1209.62 2511.96 1209.43 2511.89 1209.25 2511.82 1209.08 2511.71 1208.93 2511.56 1208.82 2511.41 1208.7 2511.21 1208.61 2510.97 1208.55 2510.73 1208.49 2510.44 1208.46 2510.09 1208.46 2509.82 1208.46 2509.57 1208.48 2509.35 1208.5 2509.13 1208.53 2508.91 1208.55 2508.71 1208.55 2508.58 1208.55 2508.48 1208.51 2508.42 1208.45 2508.36 1208.38 2508.33 1208.26 2508.33 1208.08L2508.33 1204.24C2508.33 1204.06 2508.37 1203.93 2508.44 1203.85 2508.52 1203.77 2508.63 1203.73 2508.79 1203.73Z" fill="#FFFFFF" fill-rule="evenodd" fill-opacity="1"/><path d="M2538.29 1205.72C2538.78 1205.72 2539.2 1205.79 2539.55 1205.93 2539.89 1206.08 2540.16 1206.27 2540.37 1206.52 2540.59 1206.75 2540.74 1207.04 2540.83 1207.37 2540.92 1207.69 2540.97 1208.08 2540.97 1208.54L2540.97 1212.44C2540.97 1212.49 2540.95 1212.53 2540.92 1212.56 2540.88 1212.6 2540.83 1212.63 2540.76 1212.66 2540.68 1212.68 2540.57 1212.7 2540.44 1212.7 2540.31 1212.72 2540.14 1212.73 2539.94 1212.73 2539.74 1212.73 2539.57 1212.72 2539.44 1212.7 2539.3 1212.7 2539.2 1212.68 2539.12 1212.66 2539.04 1212.63 2538.99 1212.6 2538.95 1212.56 2538.92 1212.53 2538.91 1212.49 2538.91 1212.44L2538.91 1208.84C2538.91 1208.53 2538.88 1208.29 2538.83 1208.12 2538.78 1207.94 2538.7 1207.79 2538.6 1207.67 2538.5 1207.54 2538.38 1207.45 2538.22 1207.38 2538.07 1207.31 2537.88 1207.27 2537.67 1207.27 2537.41 1207.27 2537.14 1207.36 2536.88 1207.52 2536.61 1207.68 2536.33 1207.93 2536.04 1208.24L2536.04 1212.44C2536.04 1212.49 2536.02 1212.53 2535.99 1212.56 2535.96 1212.6 2535.9 1212.63 2535.82 1212.66 2535.74 1212.68 2535.63 1212.7 2535.51 1212.7 2535.38 1212.72 2535.21 1212.73 2535 1212.73 2534.8 1212.73 2534.64 1212.72 2534.51 1212.7 2534.37 1212.7 2534.27 1212.68 2534.19 1212.66 2534.11 1212.63 2534.05 1212.6 2534.02 1212.56 2533.99 1212.53 2533.97 1212.49 2533.97 1212.44L2533.97 1206.13C2533.97 1206.08 2533.99 1206.04 2534.01 1206 2534.04 1205.97 2534.09 1205.94 2534.16 1205.91 2534.23 1205.89 2534.32 1205.87 2534.44 1205.86 2534.54 1205.85 2534.69 1205.84 2534.86 1205.84 2535.03 1205.84 2535.18 1205.85 2535.29 1205.86 2535.41 1205.87 2535.49 1205.89 2535.56 1205.91 2535.62 1205.94 2535.67 1205.97 2535.7 1206 2535.72 1206.04 2535.73 1206.08 2535.73 1206.13L2535.73 1206.86C2536.14 1206.48 2536.55 1206.19 2536.97 1206 2537.39 1205.82 2537.83 1205.72 2538.29 1205.72Z" fill="#FFFFFF" fill-rule="evenodd" fill-opacity="1"/><path d="M2546.61 1205.72C2546.87 1205.72 2547.1 1205.75 2547.31 1205.81 2547.51 1205.86 2547.7 1205.93 2547.86 1206.04 2548.02 1206.14 2548.16 1206.26 2548.28 1206.4 2548.4 1206.54 2548.49 1206.7 2548.57 1206.88 2548.77 1206.68 2548.95 1206.5 2549.13 1206.35 2549.31 1206.21 2549.49 1206.09 2549.67 1206 2549.84 1205.91 2550.02 1205.84 2550.19 1205.79 2550.37 1205.75 2550.55 1205.72 2550.73 1205.72 2551.15 1205.72 2551.5 1205.79 2551.79 1205.93 2552.07 1206.08 2552.31 1206.27 2552.49 1206.52 2552.66 1206.75 2552.79 1207.04 2552.86 1207.37 2552.93 1207.69 2552.97 1208.03 2552.97 1208.4L2552.97 1212.44C2552.97 1212.49 2552.96 1212.53 2552.93 1212.56 2552.9 1212.6 2552.85 1212.63 2552.79 1212.66 2552.73 1212.68 2552.63 1212.7 2552.52 1212.7 2552.41 1212.72 2552.27 1212.73 2552.09 1212.73 2551.91 1212.73 2551.77 1212.72 2551.65 1212.7 2551.54 1212.7 2551.45 1212.68 2551.39 1212.66 2551.31 1212.63 2551.27 1212.6 2551.25 1212.56 2551.22 1212.53 2551.21 1212.49 2551.21 1212.44L2551.21 1208.7C2551.21 1208.48 2551.19 1208.29 2551.15 1208.12 2551.11 1207.94 2551.05 1207.79 2550.96 1207.67 2550.88 1207.54 2550.77 1207.45 2550.65 1207.38 2550.53 1207.31 2550.38 1207.27 2550.21 1207.27 2549.99 1207.27 2549.78 1207.36 2549.56 1207.52 2549.35 1207.68 2549.11 1207.93 2548.86 1208.24L2548.86 1212.44C2548.86 1212.49 2548.85 1212.53 2548.81 1212.56 2548.79 1212.6 2548.74 1212.63 2548.67 1212.66 2548.6 1212.68 2548.51 1212.7 2548.4 1212.7 2548.29 1212.72 2548.15 1212.73 2547.98 1212.73 2547.8 1212.73 2547.66 1212.72 2547.55 1212.7 2547.43 1212.7 2547.35 1212.68 2547.27 1212.66 2547.21 1212.63 2547.16 1212.6 2547.13 1212.56 2547.1 1212.53 2547.09 1212.49 2547.09 1212.44L2547.09 1208.7C2547.09 1208.48 2547.07 1208.29 2547.03 1208.12 2546.99 1207.94 2546.93 1207.79 2546.85 1207.67 2546.77 1207.54 2546.67 1207.45 2546.54 1207.38 2546.41 1207.31 2546.27 1207.27 2546.09 1207.27 2545.88 1207.27 2545.66 1207.36 2545.45 1207.52 2545.23 1207.68 2545 1207.93 2544.75 1208.24L2544.75 1212.44C2544.75 1212.49 2544.73 1212.53 2544.71 1212.56 2544.68 1212.6 2544.63 1212.63 2544.56 1212.66 2544.49 1212.68 2544.41 1212.7 2544.29 1212.7 2544.18 1212.72 2544.03 1212.73 2543.86 1212.73 2543.69 1212.73 2543.55 1212.72 2543.43 1212.7 2543.32 1212.7 2543.23 1212.68 2543.16 1212.66 2543.09 1212.63 2543.05 1212.6 2543.01 1212.56 2542.99 1212.53 2542.97 1212.49 2542.97 1212.44L2542.97 1206.13C2542.97 1206.08 2542.99 1206.04 2543.01 1206 2543.03 1205.97 2543.07 1205.94 2543.13 1205.91 2543.19 1205.89 2543.27 1205.87 2543.37 1205.86 2543.47 1205.85 2543.59 1205.84 2543.73 1205.84 2543.89 1205.84 2544.01 1205.85 2544.11 1205.86 2544.21 1205.87 2544.28 1205.89 2544.34 1205.91 2544.39 1205.94 2544.43 1205.97 2544.45 1206 2544.48 1206.04 2544.49 1206.08 2544.49 1206.13L2544.49 1206.86C2544.83 1206.48 2545.18 1206.19 2545.53 1206 2545.87 1205.82 2546.23 1205.72 2546.61 1205.72Z" fill="#FFFFFF" fill-rule="evenodd" fill-opacity="1"/><path d="M2721.47 1142.22 2705.97 1182.22 2690.47 1142.22Z" stroke="#FFFFFF" stroke-width="4.82477" stroke-linecap="butt" stroke-linejoin="miter" stroke-miterlimit="8" stroke-opacity="1" fill="#0BB5DD" fill-rule="evenodd" fill-opacity="1"/></g></g></svg>