<svg width="179" height="381" xmlns="http://www.w3.org/2000/svg" xmlns:xlink="http://www.w3.org/1999/xlink" xml:space="preserve" overflow="hidden"><defs><clipPath id="clip0"><rect x="811" y="948" width="179" height="381"/></clipPath><clipPath id="clip1"><rect x="811" y="948" width="179" height="381"/></clipPath></defs><g clip-path="url(#clip0)" transform="translate(-811 -948)"><g clip-path="url(#clip1)"><path d="M0.525098 42.3652 26.6461 0.219062 42.6788 0.219062 68.8002 42.3652Z" fill="#385263" fill-rule="evenodd" fill-opacity="1" transform="matrix(0.965471 -0.260512 -0.260512 -0.965471 934.326 1253.41)"/><path d="M866.972 1003.9 871.371 1002.72 927.973 1211.54 923.574 1212.72Z" fill="#385263" fill-rule="evenodd" fill-opacity="1"/><path d="M928.973 987.9 933.299 986.725 988.973 1194.55 984.646 1195.72Z" fill="#385263" fill-rule="evenodd" fill-opacity="1"/><path d="M852.972 972.203 928.206 951.724 937.973 988.244 862.739 1008.72Z" fill="#385263" fill-rule="evenodd" fill-opacity="1"/><path d="M861.972 974.95 922.023 958.723 928.973 984.497 868.915 1000.72Z" fill="#507289" fill-rule="evenodd" fill-opacity="1"/><path d="M0.52185 105.723 59.7403 105.723 59.7403 35.0787 59.7403 34.8734 59.6061 34.8734 36.8872 0.183694 23.375 0.183694 0.656463 34.8734 0.52185 34.8734 0.52185 35.0787Z" fill="#9DEFE2" fill-rule="evenodd" fill-opacity="1" transform="matrix(0.965471 -0.260512 -0.260512 -0.965471 936.763 1245.05)"/><path d="M912.973 1014.82 929.127 1010.75 929.973 1013.67 913.819 1017.75Z" fill="#385263" fill-rule="evenodd" fill-opacity="1"/><path d="M918.973 1035.82 935.126 1031.75 935.973 1034.67 919.819 1038.75Z" fill="#385263" fill-rule="evenodd" fill-opacity="1"/><path d="M923.971 1056.82 941.075 1052.75 941.971 1055.68 924.867 1059.75Z" fill="#385263" fill-rule="evenodd" fill-opacity="1"/><path d="M929.973 1077.82 946.127 1073.75 946.973 1076.67 930.819 1080.75Z" fill="#385263" fill-rule="evenodd" fill-opacity="1"/><path d="M934.971 1098.82 952.075 1094.75 952.971 1097.67 935.867 1101.75Z" fill="#385263" fill-rule="evenodd" fill-opacity="1"/><path d="M940.971 1119.82 958.076 1115.75 958.972 1118.67 941.867 1122.75Z" fill="#385263" fill-rule="evenodd" fill-opacity="1"/><path d="M946.973 1140.37 963.127 1135.71 963.973 1139.06 947.819 1143.71Z" fill="#385263" fill-rule="evenodd" fill-opacity="1"/><path d="M951.973 1160.36 968.126 1155.71 968.973 1159.05 952.819 1163.71Z" fill="#385263" fill-rule="evenodd" fill-opacity="1"/><path d="M956.971 1181.37 974.075 1176.71 974.971 1180.05 957.867 1184.71Z" fill="#385263" fill-rule="evenodd" fill-opacity="1"/><path d="M0.4683 42.2609 26.4843 0.261008 42.452 0.261008 68.468 42.2609Z" fill="#385263" fill-rule="evenodd" fill-opacity="1" transform="matrix(1 0 0 -1 819 1327)"/><path d="M817.972 1068.72 822.972 1068.72 822.972 1284.72 817.972 1284.72Z" fill="#385263" fill-rule="evenodd" fill-opacity="1"/><path d="M881.967 1068.72 886.967 1068.72 886.967 1284.72 881.967 1284.72Z" fill="#385263" fill-rule="evenodd" fill-opacity="1"/><path d="M812.972 1033.72 890.973 1033.72 890.973 1071.72 812.972 1071.72Z" fill="#385263" fill-rule="evenodd" fill-opacity="1"/><path d="M820.972 1039.73 882.972 1039.73 882.972 1065.73 820.972 1065.73Z" fill="#507289" fill-rule="evenodd" fill-opacity="1"/><path d="M0.465824 106.227 59.466 106.227 59.466 35.2742 59.466 35.0677 59.3321 35.0677 36.697 0.226785 23.2348 0.226785 0.599682 35.0677 0.465824 35.0677 0.465824 35.2742Z" fill="#1FC2A7" fill-rule="evenodd" fill-opacity="1" transform="matrix(1 0 0 -1 823 1320)"/><path d="M859.972 1091.76 876.972 1091.76 876.972 1094.76 859.972 1094.76Z" fill="#385263" fill-rule="evenodd" fill-opacity="1"/><path d="M859.972 1112.69 876.972 1112.69 876.972 1116.69 859.972 1116.69Z" fill="#385263" fill-rule="evenodd" fill-opacity="1"/><path d="M859.972 1134.69 876.972 1134.69 876.972 1138.69 859.972 1138.69Z" fill="#385263" fill-rule="evenodd" fill-opacity="1"/><path d="M859.972 1156.76 876.972 1156.76 876.972 1159.76 859.972 1159.76Z" fill="#385263" fill-rule="evenodd" fill-opacity="1"/><path d="M859.972 1178.8 876.972 1178.8 876.972 1180.8 859.972 1180.8Z" fill="#385263" fill-rule="evenodd" fill-opacity="1"/><path d="M859.972 1199.7 876.972 1199.7 876.972 1202.71 859.972 1202.71Z" fill="#385263" fill-rule="evenodd" fill-opacity="1"/><path d="M859.972 1221.7 876.972 1221.7 876.972 1224.71 859.972 1224.71Z" fill="#385263" fill-rule="evenodd" fill-opacity="1"/><path d="M859.972 1242.8 876.972 1242.8 876.972 1244.8 859.972 1244.8Z" fill="#385263" fill-rule="evenodd" fill-opacity="1"/><path d="M858.972 1263.76 876.972 1263.76 876.972 1266.76 858.972 1266.76Z" fill="#385263" fill-rule="evenodd" fill-opacity="1"/></g></g></svg>