<svg width="275" height="1009" xmlns="http://www.w3.org/2000/svg" xmlns:xlink="http://www.w3.org/1999/xlink" xml:space="preserve" overflow="hidden"><g transform="translate(-1645 -1223)"><g><path d="M0.00288326 144.122 89.1464 0.121264 143.859 0.121264 233.003 144.122Z" fill="#385263" fill-rule="evenodd" fill-opacity="1" transform="matrix(1 0 0 -1 1672 2232)"/><path d="M1665.69 1346.66 1683.69 1346.66 1683.69 2087.66 1665.69 2087.66Z" fill="#385263" fill-rule="evenodd" fill-opacity="1"/><path d="M1885.71 1346.66 1902.71 1346.66 1902.71 2087.66 1885.71 2087.66Z" fill="#385263" fill-rule="evenodd" fill-opacity="1"/><path d="M1648.71 1226.66 1916.71 1226.66 1916.71 1356.66 1648.71 1356.66Z" fill="#385263" fill-rule="evenodd" fill-opacity="1"/><path d="M1676.71 1247.66 1889.71 1247.66 1889.71 1336.66 1676.71 1336.66Z" fill="#507289" fill-rule="evenodd" fill-opacity="1"/><path d="M0.00434278 364.096 203.004 364.096 203.004 120.447 203.004 119.738 202.543 119.738 124.664 0.0961508 78.3449 0.0961508 0.46504 119.738 0.00434278 119.738 0.00434278 120.447Z" fill="#1FC2A7" fill-rule="evenodd" fill-opacity="1" transform="matrix(1 0 0 -1 1685 2208)"/><path d="M1810.71 1425.67 1868.71 1425.67 1868.71 1435.67 1810.71 1435.67Z" fill="#385263" fill-rule="evenodd" fill-opacity="1"/><path d="M1810.71 1497.65 1868.71 1497.65 1868.71 1511.65 1810.71 1511.65Z" fill="#385263" fill-rule="evenodd" fill-opacity="1"/><path d="M1810.71 1572.65 1868.71 1572.65 1868.71 1586.65 1810.71 1586.65Z" fill="#385263" fill-rule="evenodd" fill-opacity="1"/><path d="M1810.71 1648.67 1868.71 1648.67 1868.71 1658.67 1810.71 1658.67Z" fill="#385263" fill-rule="evenodd" fill-opacity="1"/><path d="M1810.71 1724.7 1868.71 1724.7 1868.71 1730.7 1810.71 1730.7Z" fill="#385263" fill-rule="evenodd" fill-opacity="1"/><path d="M1810.71 1795.67 1868.71 1795.67 1868.71 1805.67 1810.71 1805.67Z" fill="#385263" fill-rule="evenodd" fill-opacity="1"/><path d="M1810.71 1871.67 1868.71 1871.67 1868.71 1881.67 1810.71 1881.67Z" fill="#385263" fill-rule="evenodd" fill-opacity="1"/><path d="M1810.71 1943.65 1868.71 1943.65 1868.71 1950.65 1810.71 1950.65Z" fill="#385263" fill-rule="evenodd" fill-opacity="1"/><path d="M1806.71 2015.67 1868.71 2015.67 1868.71 2025.67 1806.71 2025.67Z" fill="#385263" fill-rule="evenodd" fill-opacity="1"/></g></g></svg>