<svg width="179" height="330" xmlns="http://www.w3.org/2000/svg" xmlns:xlink="http://www.w3.org/1999/xlink" xml:space="preserve" overflow="hidden"><g transform="translate(-1746 -522)"><g><path d="M1826.47 579.225 1873.47 579.225 1873.47 652.136 1873.46 652.427C1873.34 653.875 1873.06 656.068 1872.5 659.726 1870.31 674.353 1862.51 712.966 1859.58 721.963 1856.65 730.959 1848.84 742.096 1843.23 729.741 1838.32 718.926 1830.98 683.917 1827.26 658.179L1826.47 652.136Z" stroke="#385263" stroke-width="4.82477" stroke-linecap="round" stroke-linejoin="round" stroke-miterlimit="10" stroke-opacity="1" fill="#507289" fill-rule="evenodd" fill-opacity="1"/><path d="M1800.47 566.225C1803.44 569.008 1806.4 571.793 1810.24 572.776 1814.07 573.758 1818.78 572.94 1823.47 572.121" stroke="#385263" stroke-width="7.23698" stroke-linecap="round" stroke-linejoin="round" stroke-miterlimit="10" stroke-opacity="1" fill="none" fill-rule="evenodd"/><rect x="1822.5" y="570.5" width="54" height="8.99994" stroke="#385263" stroke-width="4.82477" stroke-linecap="round" stroke-linejoin="round" stroke-miterlimit="10" stroke-opacity="1" fill="#507289" fill-opacity="1"/><path d="M1768.8 526.224 1804.47 549.756 1797.14 561.224 1761.47 537.691Z" stroke="#385263" stroke-width="4.82477" stroke-linecap="round" stroke-linejoin="round" stroke-miterlimit="10" stroke-opacity="1" fill="#507289" fill-rule="evenodd" fill-opacity="1"/><path d="M1757.23 535.228 1801.47 563.913 1796.72 571.229 1752.47 542.543Z" stroke="#385263" stroke-width="4.82477" stroke-linecap="round" stroke-linejoin="round" stroke-miterlimit="10" stroke-opacity="1" fill="#507289" fill-rule="evenodd" fill-opacity="1"/><path d="M1799.47 569.225C1802.44 572.009 1805.4 574.794 1809.24 575.776 1813.07 576.758 1817.77 575.939 1822.47 575.12" stroke="#385263" stroke-width="7.23698" stroke-linecap="round" stroke-linejoin="round" stroke-miterlimit="10" stroke-opacity="1" fill="none" fill-rule="evenodd"/><path d="M1826.97 654.725 1871.97 654.725 1871.96 655.001C1871.85 656.378 1871.57 658.464 1871.05 661.94 1868.95 675.848 1861.47 712.563 1858.67 721.113 1855.86 729.663 1848.39 740.262 1843.02 728.51 1838.31 718.225 1831.29 684.941 1827.73 660.469Z" fill="#CEF7F0" fill-rule="evenodd" fill-opacity="1"/><path d="M1824.97 592.225C1824.97 590.292 1826.55 588.724 1828.49 588.724L1852.45 588.724C1854.39 588.724 1855.97 590.292 1855.97 592.225 1855.97 594.158 1854.39 595.725 1852.45 595.725L1828.49 595.725C1826.55 595.725 1824.97 594.158 1824.97 592.225Z" fill="#385263" fill-rule="evenodd" fill-opacity="1"/><path d="M1824.97 630.225C1824.97 628.292 1826.55 626.725 1828.49 626.725L1852.45 626.725C1854.39 626.725 1855.97 628.292 1855.97 630.225 1855.97 632.157 1854.39 633.725 1852.45 633.725L1828.49 633.725C1826.55 633.725 1824.97 632.157 1824.97 630.225Z" fill="#385263" fill-rule="evenodd" fill-opacity="1"/><path d="M1871.47 641.225 1917.47 641.225 1917.47 714.139 1917.46 714.427C1917.35 715.874 1917.07 718.071 1916.53 721.723 1914.38 736.351 1906.74 774.966 1903.87 783.963 1901.01 792.958 1893.36 804.096 1887.87 791.741 1883.07 780.926 1875.88 745.92 1872.25 720.177L1871.47 714.139Z" stroke="#385263" stroke-width="4.82477" stroke-linecap="round" stroke-linejoin="round" stroke-miterlimit="10" stroke-opacity="1" fill="#507289" fill-rule="evenodd" fill-opacity="1"/><path d="M1844.47 628.238C1847.44 630.624 1850.4 633.011 1854.24 633.853 1858.07 634.695 1862.78 633.993 1867.47 633.291" stroke="#385263" stroke-width="7.23698" stroke-linecap="round" stroke-linejoin="round" stroke-miterlimit="10" stroke-opacity="1" fill="none" fill-rule="evenodd"/><rect x="1866.5" y="632.5" width="54" height="8.99994" stroke="#385263" stroke-width="4.82477" stroke-linecap="round" stroke-linejoin="round" stroke-miterlimit="10" stroke-opacity="1" fill="#507289" fill-opacity="1"/><path d="M1812.97 588.223 1849.47 611.756 1841.97 623.224 1805.47 599.691Z" stroke="#385263" stroke-width="4.82477" stroke-linecap="round" stroke-linejoin="round" stroke-miterlimit="10" stroke-opacity="1" fill="#507289" fill-rule="evenodd" fill-opacity="1"/><path d="M1801.33 596.22 1846.47 625.702 1841.61 633.221 1796.47 603.739Z" stroke="#385263" stroke-width="4.82477" stroke-linecap="round" stroke-linejoin="round" stroke-miterlimit="10" stroke-opacity="1" fill="#507289" fill-rule="evenodd" fill-opacity="1"/><path d="M1843.47 631.238C1846.57 633.624 1849.66 636.011 1853.67 636.853 1857.66 637.695 1862.57 636.993 1867.47 636.292" stroke="#385263" stroke-width="7.23698" stroke-linecap="round" stroke-linejoin="round" stroke-miterlimit="10" stroke-opacity="1" fill="none" fill-rule="evenodd"/><path d="M1870.97 716.725 1915.97 716.725 1915.96 716.998C1915.85 718.382 1915.57 720.465 1915.05 723.94 1912.95 737.845 1905.47 774.563 1902.67 783.113 1899.86 791.663 1892.39 802.262 1887.02 790.51 1882.31 780.225 1875.29 746.941 1871.73 722.472Z" fill="#CEF7F0" fill-rule="evenodd" fill-opacity="1"/><path d="M1869.97 654.225C1869.97 652.292 1871.54 650.725 1873.46 650.725L1896.48 650.725C1898.41 650.725 1899.97 652.292 1899.97 654.225 1899.97 656.158 1898.41 657.725 1896.48 657.725L1873.46 657.725C1871.54 657.725 1869.97 656.158 1869.97 654.225Z" fill="#385263" fill-rule="evenodd" fill-opacity="1"/><path d="M1869.97 692.225C1869.97 690.292 1871.54 688.724 1873.46 688.724L1896.48 688.724C1898.41 688.724 1899.97 690.292 1899.97 692.225 1899.97 694.157 1898.41 695.725 1896.48 695.725L1873.46 695.725C1871.54 695.725 1869.97 694.157 1869.97 692.225Z" fill="#385263" fill-rule="evenodd" fill-opacity="1"/><path d="M1835.47 690.225 1882.47 690.225 1882.47 763.131 1882.47 763.138 1882.46 763.425C1882.34 764.873 1882.06 767.07 1881.5 770.721 1879.31 785.349 1871.51 823.964 1868.58 832.96 1865.65 841.956 1857.84 853.1 1852.23 840.738 1847.32 829.924 1839.98 794.918 1836.26 769.175L1835.47 763.138 1835.47 763.131Z" stroke="#385263" stroke-width="4.82477" stroke-linecap="round" stroke-linejoin="round" stroke-miterlimit="10" stroke-opacity="1" fill="#507289" fill-rule="evenodd" fill-opacity="1"/><path d="M1809.47 676.225C1812.44 679.008 1815.4 681.793 1819.24 682.776 1823.07 683.758 1827.77 682.94 1832.47 682.121" stroke="#385263" stroke-width="7.23698" stroke-linecap="round" stroke-linejoin="round" stroke-miterlimit="10" stroke-opacity="1" fill="none" fill-rule="evenodd"/><rect x="1831.5" y="681.5" width="54" height="8.99994" stroke="#385263" stroke-width="4.82477" stroke-linecap="round" stroke-linejoin="round" stroke-miterlimit="10" stroke-opacity="1" fill="#507289" fill-opacity="1"/><path d="M1777.81 637.224 1813.47 660.756 1806.14 672.224 1770.47 648.692Z" stroke="#385263" stroke-width="4.82477" stroke-linecap="round" stroke-linejoin="round" stroke-miterlimit="10" stroke-opacity="1" fill="#507289" fill-rule="evenodd" fill-opacity="1"/><path d="M1766.23 645.221 1810.47 674.702 1805.72 682.22 1761.47 652.739Z" stroke="#385263" stroke-width="4.82477" stroke-linecap="round" stroke-linejoin="round" stroke-miterlimit="10" stroke-opacity="1" fill="#507289" fill-rule="evenodd" fill-opacity="1"/><path d="M1808.47 679.225C1811.44 682.009 1814.4 684.794 1818.24 685.776 1822.07 686.758 1826.77 685.939 1831.47 685.121" stroke="#385263" stroke-width="7.23698" stroke-linecap="round" stroke-linejoin="round" stroke-miterlimit="10" stroke-opacity="1" fill="none" fill-rule="evenodd"/><path d="M1835.97 764.724 1880.97 764.724 1880.96 765.005C1880.85 766.401 1880.57 768.513 1880.05 772.029 1877.95 786.114 1870.47 823.293 1867.67 831.953 1864.86 840.613 1857.39 851.343 1852.02 839.441 1847.31 829.034 1840.29 795.321 1836.73 770.541Z" fill="#CEF7F0" fill-rule="evenodd" fill-opacity="1"/><path d="M1833.97 702.714C1833.97 700.503 1835.71 698.714 1837.85 698.714L1861.1 698.714C1863.24 698.714 1864.97 700.503 1864.97 702.714 1864.97 704.925 1863.24 706.714 1861.1 706.714L1837.85 706.714C1835.71 706.714 1833.97 704.925 1833.97 702.714Z" fill="#385263" fill-rule="evenodd" fill-opacity="1"/><path d="M1833.97 741.225C1833.97 739.293 1835.55 737.725 1837.49 737.725L1861.45 737.725C1863.39 737.725 1864.97 739.293 1864.97 741.225 1864.97 743.157 1863.39 744.725 1861.45 744.725L1837.49 744.725C1835.55 744.725 1833.97 743.157 1833.97 741.225Z" fill="#385263" fill-rule="evenodd" fill-opacity="1"/></g></g></svg>